<svg xmlns="http://www.w3.org/2000/svg" viewBox="0 0 200 200" width="200" height="200">
      <defs>
        <linearGradient id="yellowPetalGradient" x1="0%" y1="0%" x2="100%" y2="100%">
          <stop offset="0%" style="stop-color:#FFEB3B;stop-opacity:1" />
          <stop offset="100%" style="stop-color:#FFC107;stop-opacity:1" />
        </linearGradient>
        
        <radialGradient id="yellowGradient" cx="50%" cy="50%">
          <stop offset="0%" style="stop-color:#FFD700;stop-opacity:1" />
          <stop offset="100%" style="stop-color:#FFA500;stop-opacity:1" />
        </radialGradient>
        
        <linearGradient id="greenGradient" x1="0%" y1="0%" x2="0%" y2="100%">
          <stop offset="0%" style="stop-color:#4CAF50;stop-opacity:1" />
          <stop offset="100%" style="stop-color:#2E7D32;stop-opacity:1" />
        </linearGradient>
      </defs>
      
      <g transform="translate(100, 100)">
        <rect x="-3" y="50" width="6" height="50" rx="3" fill="url(#greenGradient)"/>
        
        <path d="M -3,70 Q -12,65 -15,55 Q -12,45 -8,40 Q -5,45 -3,55 Z" fill="#4CAF50" opacity="0.9"/>
        <path d="M 3,70 Q 12,65 15,55 Q 12,45 8,40 Q 5,45 3,55 Z" fill="#4CAF50" opacity="0.9"/>
        
        <circle cx="0" cy="0" r="14" fill="url(#yellowGradient)"/>
        <circle cx="0" cy="0" r="10" fill="#FFD700" opacity="0.7"/>
        <circle cx="0" cy="0" r="6" fill="#FFA500" opacity="0.5"/>
        
        <path d="M 0,-40 Q -8,-50 -12,-45 Q -15,-40 -12,-35 Q -8,-30 0,-25 Q 8,-30 12,-35 Q 15,-40 12,-45 Q 8,-50 0,-40 Z" 
              fill="url(#yellowPetalGradient)"/>
        <path d="M 0,-40 Q -6,-48 -9,-43 Q -11,-38 -9,-33 Q -6,-28 0,-25 Q 6,-28 9,-33 Q 11,-38 9,-43 Q 6,-48 0,-40 Z" 
              fill="#FFEB3B" opacity="0.4"/>
        
        <path d="M 40,0 Q 50,8 45,12 Q 40,15 35,12 Q 30,8 25,0 Q 30,-8 35,-12 Q 40,-15 45,-12 Q 50,-8 40,0 Z" 
              fill="url(#yellowPetalGradient)"/>
        <path d="M 40,0 Q 48,6 43,9 Q 38,11 33,9 Q 28,6 25,0 Q 28,-6 33,-9 Q 38,-11 43,-9 Q 48,-6 40,0 Z" 
              fill="#FFEB3B" opacity="0.4"/>
        
        <path d="M 0,40 Q -8,50 -12,45 Q -15,40 -12,35 Q -8,30 0,25 Q 8,30 12,35 Q 15,40 12,45 Q 8,50 0,40 Z" 
              fill="url(#yellowPetalGradient)"/>
        <path d="M 0,40 Q -6,48 -9,43 Q -11,38 -9,33 Q -6,28 0,25 Q 6,28 9,33 Q 11,38 9,43 Q 6,48 0,40 Z" 
              fill="#FFEB3B" opacity="0.4"/>
        
        <path d="M -40,0 Q -50,-8 -45,-12 Q -40,-15 -35,-12 Q -30,-8 -25,0 Q -30,8 -35,12 Q -40,15 -45,12 Q -50,8 -40,0 Z" 
              fill="url(#yellowPetalGradient)"/>
        <path d="M -40,0 Q -48,-6 -43,-9 Q -38,-11 -33,-9 Q -28,-6 -25,0 Q -28,6 -33,9 Q -38,11 -43,9 Q -48,6 -40,0 Z" 
              fill="#FFEB3B" opacity="0.4"/>
        
        <ellipse cx="28" cy="-28" rx="10" ry="15" fill="url(#yellowPetalGradient)" opacity="0.85" 
                 transform="rotate(45 28 -28)"/>
        
        <ellipse cx="28" cy="28" rx="10" ry="15" fill="url(#yellowPetalGradient)" opacity="0.85" 
                 transform="rotate(135 28 28)"/>
        
        <ellipse cx="-28" cy="28" rx="10" ry="15" fill="url(#yellowPetalGradient)" opacity="0.85" 
                 transform="rotate(-135 -28 28)"/>
        
        <ellipse cx="-28" cy="-28" rx="10" ry="15" fill="url(#yellowPetalGradient)" opacity="0.85" 
                 transform="rotate(-45 -28 -28)"/>
      </g>
    </svg>